{"title":"Ridley Scott - Boy and Bicycle (1956, DVDRip, XviD)","uid":8763330,"size":386562294,"categoryP":"video","categoryS":"movies","magnet":"?xt=urn:btih:7e281517bbc29ebda6b82fef3d741c0a58cab81e&amp;dn=Ridley+Scott+-+Boy+and+Bicycle+%281956%2C+DVDRip%2C+XviD%29&amp;tr=udp%3A%2F%2Ftracker.openbittorrent.com%3A80&amp;tr=udp%3A%2F%2Fopen.demonii.com%3A1337&amp;tr=udp%3A%2F%2Ftracker.coppersurfer.tk%3A6969&amp;tr=udp%3A%2F%2Fexodus.desync.com%3A6969","seeders":2,"leechers":0,"uploader":"rpessoa","files":1,"time":1375286440,"description":"A teenage boy plays truant from school, and spends the day riding around the town and the deserted beach on his bicycle, letting his mind wander as he imagines he is the only person in the world. \n &lt;a href=&quot;\nhttp://www.imdb.com/title/tt0346645/&quot; rel=&quot;nofollow&quot; target=&quot;_NEW&quot;&gt;\nhttp://www.imdb.com/title/tt0346645/&lt;/a&gt;\n\nGeneral\nComplete name : Boy and Bicycle (1956).AVI\nFormat : AVI\nFormat/Info : Audio Video Interleave\nFile size : 369 MiB\nDuration : 26mn 43s\nOverall bit rate : 1 928 Kbps\n\nVideo\nID : 0\nFormat : MPEG-4 Visual\nFormat profile : Simple@L3\nFormat settings, BVOP : No\nFormat settings, QPel : No\nFormat settings, GMC : No warppoints\nFormat settings, Matrix : Default (H.263)\nCodec ID : XVID\nCodec ID/Hint : XviD\nDuration : 26mn 43s\nBit rate : 1 794 Kbps\nWidth : 720 pixels\nHeight : 480 pixels\nDisplay aspect ratio : 3:2\nFrame rate : 23.976 fps\nStandard : NTSC\nColor space : YUV\nChroma subsampling : 4:2:0\nBit depth : 8 bits\nScan type : Progressive\nCompression mode : Lossy\nBits/(Pixel*Frame) : 0.217\nStream size : 343 MiB (93%)\nWriting library : ZJMedia MPEG Encoder\n\nAudio\nID : 1\nFormat : MPEG Audio\nFormat version : Version 1\nFormat profile : Layer 3\nMode : Joint stereo\nMode extension : MS Stereo\nCodec ID : 55\nCodec ID/Hint : MP3\nDuration : 26mn 43s\nBit rate mode : Constant\nBit rate : 128 Kbps\nChannel(s) : 2 channels\nSampling rate : 44.1 KHz\nCompression mode : Lossy\nStream size : 24.5 MiB (7%)\nAlignment : Split accross interleaves\nInterleave, duration : 999 ms (23.95 video frames)\nInterleave, preload duration : 750 ms","torrent":{"xt":"urn:btih:7e281517bbc29ebda6b82fef3d741c0a58cab81e","amp;dn":"Ridley+Scott+-+Boy+and+Bicycle+%281956%2C+DVDRip%2C+XviD%29","amp;tr":["udp%3A%2F%2Ftracker.openbittorrent.com%3A80","udp%3A%2F%2Fopen.demonii.com%3A1337","udp%3A%2F%2Ftracker.coppersurfer.tk%3A6969","udp%3A%2F%2Fexodus.desync.com%3A6969"],"infoHash":"7e281517bbc29ebda6b82fef3d741c0a58cab81e","infoHashBuffer":{"type":"Buffer","data":[126,40,21,23,187,194,158,189,166,184,47,239,61,116,28,10,88,202,184,30]},"announce":[],"urlList":[]}}